<?xml version="1.0" encoding="utf-8"?>
<!-- Generator: Adobe Illustrator 19.0.0, SVG Export Plug-In . SVG Version: 6.00 Build 0)  -->
<svg version="1.1"
	 id="svg2" xmlns:dc="http://purl.org/dc/elements/1.1/" xmlns:cc="http://creativecommons.org/ns#" xmlns:rdf="http://www.w3.org/1999/02/22-rdf-syntax-ns#" xmlns:svg="http://www.w3.org/2000/svg" xmlns:sodipodi="http://sodipodi.sourceforge.net/DTD/sodipodi-0.dtd" xmlns:inkscape="http://www.inkscape.org/namespaces/inkscape" sodipodi:docname="queen2.svg" inkscape:version="0.91 r13725"
	 xmlns="http://www.w3.org/2000/svg" xmlns:xlink="http://www.w3.org/1999/xlink" x="0px" y="0px" viewBox="-241.9 366.2 89.8 85.4"
	 style="enable-background:new -241.9 366.2 89.8 85.4;" xml:space="preserve">
<sodipodi:namedview  inkscape:zoom="1.888" inkscape:cy="62.5" objecttolerance="10" gridtolerance="10" inkscape:cx="50" guidetolerance="10" showgrid="false" pagecolor="#ffffff" borderopacity="1" id="namedview10" bordercolor="#666666" inkscape:current-layer="svg2" inkscape:window-maximized="0" inkscape:window-y="0" inkscape:window-x="0" inkscape:window-height="480" inkscape:window-width="640" inkscape:pageopacity="0" inkscape:pageshadow="2">
	</sodipodi:namedview>
<g>
	<path d="M-223.6,424.3v5.7c0,0.8,0.6,1.4,1.4,1.4h50.4c0.8,0,1.4-0.6,1.4-1.4v-6.8c0,0,10.2-8.2,9.2-17.4
		c-1-9.2-9.2-14.3-18.4-13.3c0,0,5.9,14-3.8,23.2c-0.2,0.2-0.5,0.4-0.7,0.5c-0.6,0.3-1.8,0.9-2.7,0.8c-1.9-0.2-4.1-2,0-6.1
		c0,0,4.5-3.9,2-15.3c-0.3-1.4-1-2.9-1.9-4c-1.6-2-4.2-5-8.3-6c0,0-1.4-0.3-2-0.3s-2,0.3-2,0.3c-4,1-6.7,4-8.3,6
		c-0.9,1.1-1.6,2.6-1.9,4c-2.5,11.5,2,15.3,2,15.3c4.1,4.1,1.9,5.9,0,6.1c-0.8,0.1-2-0.4-2.7-0.8c-0.3-0.1-0.5-0.3-0.7-0.5
		c-9.7-9.1-3.8-23.2-3.8-23.2c-9.2-1-17.4,4.1-18.4,13.3C-233.8,415.1-223.6,424.3-223.6,424.3z"/>
	<path d="M-172.4,436.6h-49.1c-1.1,0-2,0.9-2,2v5.1c0,1.1,0.9,2,2,2h49.1c1.1,0,2-0.9,2-2v-5.1
		C-170.3,437.5-171.3,436.6-172.4,436.6z"/>
	<circle cx="-196.9" cy="376.2" r="5.1"/>
</g>
</svg>
