<?xml version="1.0" encoding="utf-8"?>
<!-- Generator: Adobe Illustrator 19.0.0, SVG Export Plug-In . SVG Version: 6.00 Build 0)  -->
<svg version="1.1" id="Capa_1" xmlns="http://www.w3.org/2000/svg" xmlns:xlink="http://www.w3.org/1999/xlink" x="0px" y="0px"
	 viewBox="-149 272.9 297 297" style="enable-background:new -149 272.9 297 297;" xml:space="preserve">
<g>
	<path d="M68.8,512.7h-5.5c2.4-3.5,10-16.7-0.7-29.9c-12.4-15.3-36.9-60.9-25.3-91.5h0.9c4.1,0,7.1-3.3,7.1-7.4v-0.9
		c0-4.1-3-7.4-7.1-7.4h-1.1c10.1-9.7,16.4-23.3,16.4-38.5c0-29.4-23.9-53.3-53.3-53.3S-53,307.6-53,337.1c0,15.1,6.3,28.8,16.4,38.5
		h-2.1c-4.1,0-7.7,3.3-7.7,7.4v0.9c0,4.1,3.6,7.4,7.7,7.4h1.8c11.6,30.6-13,76.3-25.3,91.5c-10.7,13.2-3.1,26.4-0.7,29.9h-6.4
		c-4.1,0-7.7,3.3-7.7,7.4v16.7c0,4.1,3.6,7.4,7.7,7.4h0.6V559H68.5v-14.8c4.6,0,7.4-3.3,7.4-7.4v-16.7
		C75.9,516,72.9,512.7,68.8,512.7z"/>
</g>
</svg>
