<?xml version="1.0" encoding="utf-8"?>
<!-- Generator: Adobe Illustrator 19.0.0, SVG Export Plug-In . SVG Version: 6.00 Build 0)  -->
<svg version="1.1"
	 id="svg2" xmlns:dc="http://purl.org/dc/elements/1.1/" xmlns:cc="http://creativecommons.org/ns#" xmlns:rdf="http://www.w3.org/1999/02/22-rdf-syntax-ns#" xmlns:svg="http://www.w3.org/2000/svg" xmlns:sodipodi="http://sodipodi.sourceforge.net/DTD/sodipodi-0.dtd" xmlns:inkscape="http://www.inkscape.org/namespaces/inkscape" sodipodi:docname="queen2.svg" inkscape:version="0.91 r13725"
	 xmlns="http://www.w3.org/2000/svg" xmlns:xlink="http://www.w3.org/1999/xlink" x="0px" y="0px" viewBox="-241.9 366.2 89.8 85.4"
	 style="enable-background:new -241.9 366.2 89.8 85.4;" xml:space="preserve">
<sodipodi:namedview  inkscape:zoom="1.888" inkscape:cy="62.5" objecttolerance="10" gridtolerance="10" inkscape:cx="50" guidetolerance="10" showgrid="false" pagecolor="#ffffff" borderopacity="1" id="namedview10" bordercolor="#666666" inkscape:current-layer="svg2" inkscape:window-maximized="0" inkscape:window-y="0" inkscape:window-x="0" inkscape:window-height="480" inkscape:window-width="640" inkscape:pageopacity="0" inkscape:pageshadow="2">
	</sodipodi:namedview>
<path id="path4" d="M-158.7,391.5c-0.7,2.2-2.6,3.8-4.6,4.3l-0.8,0.2l-12.4,35.1h3.3c0.8,0,1.4,0.6,1.4,1.4v4.1h6.7
	c0.8,0,1.4,0.6,1.4,1.4v5.7c0,0.8-0.6,1.4-1.4,1.4h-63.8c-0.8,0-1.4-0.6-1.4-1.4v-5.7c0-0.8,0.6-1.4,1.4-1.4h6.7v-4.1
	c0-0.8,0.6-1.4,1.4-1.4h3.3l-12.3-35.2l-0.8-0.2c-2.1-0.5-4-2.1-4.6-4.3c-1.1-3.4,0.8-7.1,4.2-8.2c3.4-1.1,7.2,0.8,8.3,4.1
	c0.9,2.4,0,5.1-1.8,6.8l5.9,8.3l2.8-14.2c-2.3-0.8-4.1-2.9-4.4-5.5c-0.3-3.5,2.2-6.8,5.9-7.2s6.9,2.2,7.3,5.8c0.3,2.6-1,5-3.2,6.2
	l5.6,12.8l4.8-15.2c-0.3-0.2-0.5-0.3-0.8-0.4c-1.8-1.2-3-3.1-3-5.5c0-3.6,2.9-6.5,6.6-6.5l0,0c3.7,0,6.6,2.9,6.6,6.5
	c0,2.3-1.2,4.3-3,5.5c-0.3,0.2-0.5,0.3-0.8,0.4l4.8,15.2l5.6-12.8c-2.1-1.3-3.4-3.6-3.2-6.2c0.3-3.5,3.6-6.2,7.3-5.8
	c3.6,0.3,6.3,3.5,5.9,7.2c-0.3,2.6-2.1,4.6-4.4,5.5l2.8,14.2l5.9-8.3c-1.8-1.7-2.6-4.3-1.8-6.8c1.1-3.4,4.9-5.3,8.3-4.1
	C-159.4,384.4-157.5,388-158.7,391.5z"/>
</svg>
